<?xml version="1.0" encoding="utf-8"?>
<!-- Generator: Adobe Illustrator 24.2.0, SVG Export Plug-In . SVG Version: 6.00 Build 0)  -->
<svg version="1.1" id="Layer_1" xmlns="http://www.w3.org/2000/svg" xmlns:xlink="http://www.w3.org/1999/xlink" x="0px" y="0px"
	 viewBox="0 0 13 13" enable-background="new 0 0 13 13" xml:space="preserve">
<g>
	<path fill-rule="evenodd" clip-rule="evenodd" fill="#FFFFFF" d="M1.8,1c-0.5,0-1,0.2-1.3,0.5S0,2.3,0,2.8v8.5c0,1,0.8,1.8,1.8,1.8
		h8.5c0.5,0,0.9-0.2,1.2-0.5s0.5-0.8,0.5-1.2V7.8c0-0.3-0.1-0.5-0.4-0.6s-0.5-0.1-0.8,0s-0.4,0.4-0.4,0.6v3.5c0,0.1,0,0.1-0.1,0.2
		c0,0-0.1,0.1-0.2,0.1H1.8c-0.1,0-0.1,0-0.2-0.1c0,0-0.1-0.1-0.1-0.2V2.8c0-0.1,0-0.1,0.1-0.2c0,0,0.1-0.1,0.2-0.1h3.5
		c0.3,0,0.5-0.1,0.6-0.4s0.1-0.5,0-0.8S5.5,1,5.2,1H1.8z M8.6,0h4.1c0.1,0,0.1,0,0.2,0.1c0,0,0.1,0.1,0.1,0.2v4.1
		c0,0.1,0,0.1-0.1,0.2c0,0-0.1,0.1-0.2,0.1c-0.1,0-0.1,0-0.2-0.1L11,3L7.3,6.8C7.1,7,6.8,7,6.6,7C6.3,6.9,6.1,6.7,6,6.4
		c0-0.2,0-0.5,0.2-0.7L10,2L8.4,0.4c0,0-0.1-0.1-0.1-0.2s0-0.1,0.1-0.2S8.5,0,8.6,0z"/>
</g>
</svg>
